<svg width="131" height="21" viewBox="0 0 131 21" fill="none" xmlns="http://www.w3.org/2000/svg">
<g clip-path="url(#clip0_6878_7638)">
<path d="M110.152 19.3385H108.326V18.6923H98.7046V19.3385H96.8622V7.16491H101.783C102.011 6.34787 102.181 5.51673 102.293 4.67723H94.8633V2.9649H112.067V4.67723H104.072C103.948 5.51616 103.771 6.34693 103.542 7.16491H110.152V19.3385ZM108.326 12.0628V8.83199H98.7046V12.0628H108.326ZM108.326 16.9639V13.6653H98.7046V16.9574L108.326 16.9639Z" fill="#31437A"/>
<path d="M114.876 10.2406V4.12477H116.815C117.041 3.52658 117.213 2.91037 117.328 2.2832L119.19 2.52228C119.067 3.0763 118.889 3.61733 118.657 4.13766H120.989V17.6746C120.989 18.7084 120.383 19.2415 119.187 19.2415H117.854L117.418 17.6746C117.874 17.7134 118.311 17.7489 118.691 17.7489C118.78 17.7587 118.87 17.7486 118.954 17.7192C119.039 17.6899 119.115 17.6422 119.177 17.5798C119.24 17.5174 119.287 17.4419 119.314 17.3592C119.342 17.2765 119.35 17.1888 119.337 17.1027V11.8721H116.582C116.488 14.9285 115.992 17.4323 115.099 19.3675L113.767 18.1883C114.469 16.4922 114.849 14.376 114.906 11.8721H113.767V10.2568L114.876 10.2406ZM119.304 5.71751H116.568V10.2406H119.304V5.71751ZM118.884 15.9364L117.594 16.2595C117.405 15.1481 117.152 14.0479 116.835 12.9641L118.108 12.5571C118.435 13.6654 118.694 14.7917 118.884 15.93V15.9364ZM118.924 9.15182L117.688 9.4749C117.471 8.58202 117.198 7.7027 116.872 6.84181L118.088 6.45414C118.428 7.32888 118.707 8.22475 118.924 9.13569V9.15182ZM131.001 3.1103V4.72568H130.051V17.526C130.051 18.7052 129.405 19.2932 128.132 19.2932H126.177L125.817 17.7101C126.397 17.781 126.981 17.8177 127.566 17.82C128.076 17.82 128.342 17.5809 128.342 17.1189V4.72568H121.639V3.1103H131.001ZM127.023 7.26506V14.3728H122.189V7.26506H127.023ZM125.484 8.68338H123.718V12.9383H125.484V8.68338Z" fill="#31437A"/>
<path fill-rule="evenodd" clip-rule="evenodd" d="M37.5631 7.53148C37.5631 6.01948 37.0667 4.8241 36.1006 3.97763C35.2459 3.23743 34.127 2.85024 32.9822 2.89857H24.6533V19.3755H32.649C33.9048 19.4103 35.1371 19.0411 36.1538 18.3255C37.3665 17.3563 37.9795 15.9412 37.9795 14.1255C38.033 12.8186 37.5761 11.5403 36.7002 10.5458C37.2941 9.64816 37.5949 8.59757 37.5631 7.53148ZM32.3159 9.14686H27.8183V6.37164H32.9822C34.1582 6.37164 34.3981 6.83363 34.3981 7.53148C34.4048 8.32948 34.1516 9.14686 32.3159 9.14686ZM32.649 15.9315H27.8183V12.523H33.4053C33.5738 12.5245 33.7403 12.5593 33.8944 12.6255C34.0485 12.6916 34.187 12.7875 34.3015 12.9075C34.4783 13.0606 34.617 13.2507 34.707 13.4634C34.797 13.676 34.8361 13.9058 34.8212 14.1352C34.8146 15.0204 34.558 15.9251 32.649 15.9251V15.9315ZM54.9571 9.32707H51.7921V12.6968H54.9571C55.6234 12.6968 55.8566 12.8389 55.9399 12.9164C56.0499 13.0715 56.2064 13.4495 56.2064 14.3089V15.9243H53.208C51.6156 15.9243 50.876 15.6012 50.5428 15.3428C49.7132 14.6966 49.2901 13.2815 49.2901 11.1428C49.2901 9.00399 49.7099 7.58891 50.5361 6.86199C50.8859 6.6326 51.6322 6.36767 53.2014 6.36767H59.448V2.9043H53.208C51.1825 2.9043 49.59 3.31138 48.4806 4.11907L48.4506 4.13843C46.8015 5.46628 45.9619 7.82476 45.9619 11.1428C45.9619 14.4608 46.8048 16.7998 48.4572 18.0631C49.5733 18.9386 51.1725 19.3812 53.208 19.3812H59.538V14.3089C59.538 10.1897 57.0593 9.32707 54.9571 9.32707ZM40.2656 2.9082H43.5972V19.3851H40.2656V2.9082Z" fill="#31437A"/>
<path d="M86.5766 5.58252C86.3381 4.86245 85.9414 4.2011 85.4138 3.64406C85.126 3.39393 84.7901 3.20127 84.4253 3.0771C84.0606 2.95292 83.6743 2.89967 83.2883 2.92037H81.326L74.9961 19.3973H78.5908L79.9235 15.782H86.9997L88.4989 19.3973H92.087L86.5766 5.58252ZM85.6471 12.309H81.2527L83.4183 6.71006L85.6471 12.309Z" fill="#31437A"/>
<path fill-rule="evenodd" clip-rule="evenodd" d="M66.4486 2.90831H62.9738C62.8854 2.90831 62.8007 2.94233 62.7382 3.00292C62.6757 3.06351 62.6406 3.1457 62.6406 3.23138V5.29585C62.6406 5.38154 62.6757 5.46369 62.7382 5.52428C62.8007 5.58486 62.8854 5.61893 62.9738 5.61893H66.272C67.0202 5.62508 67.7597 5.77408 68.4485 6.0574C69.1372 6.34072 69.7617 6.7528 70.2862 7.27016C70.8107 7.78752 71.2251 8.40001 71.5055 9.07264C71.7859 9.74527 71.927 10.4649 71.9207 11.1904C71.9143 11.9159 71.7607 12.6331 71.4685 13.301C71.1764 13.9689 70.7514 14.5745 70.2179 15.0832C69.6844 15.5918 69.0528 15.9936 68.3592 16.2656C67.6656 16.5375 66.9235 16.6743 66.1754 16.6681H62.9738C62.8854 16.6681 62.8007 16.7022 62.7382 16.7628C62.6757 16.8234 62.6406 16.9055 62.6406 16.9912V19.0783C62.6406 19.164 62.6757 19.2462 62.7382 19.3067C62.8007 19.3673 62.8854 19.4014 62.9738 19.4014H66.4486C67.5812 19.4231 68.707 19.2255 69.7599 18.8202C70.8129 18.4149 71.7719 17.81 72.5809 17.0409C73.3898 16.2718 74.0325 15.3539 74.4712 14.341C74.9099 13.3281 75.1358 12.2405 75.1358 11.1419C75.1358 10.0433 74.9099 8.95575 74.4712 7.94286C74.0325 6.92997 73.3898 6.01208 72.5809 5.24296C71.7719 4.47385 70.8129 3.86895 69.7599 3.46363C68.707 3.05832 67.5812 2.86075 66.4486 2.88247V2.90831ZM66.2554 18.4871H63.7767V17.8764H66.2554C70.1666 17.8764 73.1184 15.0528 73.1184 11.3083C73.1184 7.45077 70.1666 4.54306 66.2554 4.54306H63.7767V3.93247H66.2554C67.2498 3.9293 68.2349 4.11873 69.1528 4.48966C70.0708 4.86058 70.9031 5.40553 71.601 6.09254C72.2989 6.77955 72.8483 7.59477 73.217 8.49042C73.5857 9.38606 73.7662 10.3441 73.748 11.3083C73.748 15.4017 70.5264 18.4871 66.2554 18.4871ZM64.2194 7.55039H66.1917C67.0729 7.57082 67.9179 7.89478 68.5753 8.46425C69.2328 9.03372 69.6597 9.81151 69.7798 10.6584V10.7133C69.8228 10.9246 69.9398 11.115 70.1111 11.2522C70.2823 11.3894 70.4972 11.4649 70.7193 11.4661H71.1224C71.1262 11.1154 71.1095 10.7649 71.0724 10.4161C70.889 9.25949 70.2838 8.20509 69.3668 7.44446C68.4497 6.68384 67.2818 6.26748 66.0751 6.27102H64.2594C64.1337 6.13623 63.9697 6.04063 63.7879 5.99637C63.6062 5.95212 63.415 5.9612 63.2386 6.02244C63.0622 6.08368 62.9085 6.19431 62.797 6.34035C62.6855 6.48639 62.6213 6.66126 62.6124 6.84275C62.6035 7.02425 62.6504 7.20424 62.7471 7.35987C62.8438 7.5155 62.986 7.63976 63.1556 7.71694C63.3252 7.79412 63.5147 7.82072 63.6999 7.79337C63.8851 7.76602 64.0578 7.68597 64.1961 7.56333L64.2194 7.55039ZM70.22 13.9404C70.1667 14.0309 70.1267 14.0923 70.1 14.1278C69.6286 14.7251 69.0214 15.2087 68.3256 15.541C67.6299 15.8733 66.8644 16.0453 66.0888 16.0437H62.624V9.07812H63.9566V14.761H66.0955C66.6912 14.7615 67.2783 14.6229 67.8072 14.3569C68.336 14.0909 68.7911 13.7054 69.1339 13.2329C69.2608 13.0593 69.3723 12.8756 69.467 12.6837C69.5809 12.6832 69.6937 12.7047 69.799 12.7467C69.9043 12.7888 70 12.8507 70.0805 12.9287C70.161 13.0068 70.2248 13.0996 70.2682 13.2017C70.3116 13.3038 70.3337 13.4132 70.3332 13.5237C70.3329 13.6697 70.2939 13.8132 70.22 13.9404Z" fill="url(#paint0_linear_6878_7638)"/>
<path fill-rule="evenodd" clip-rule="evenodd" d="M0 16.1278C1.07276 14.6352 2.59085 14.6352 4.55425 16.1278C7.49601 18.37 12.7765 21.297 16.9709 17.9532C12.8132 18.8643 10.1013 18.2149 3.87126 13.9051C1.85901 13.0651 0.568585 13.806 0 16.1278Z" fill="#31437A"/>
<path fill-rule="evenodd" clip-rule="evenodd" d="M5.45996 17.8047C7.43446 19.9348 9.38676 20.9999 11.3168 20.9999C13.0705 21.0569 14.7889 20.5136 16.1709 19.4653C14.5972 19.9231 12.9596 20.1411 11.3168 20.1115C9.99088 20.0361 8.03858 19.2671 5.45996 17.8047Z" fill="#31437A"/>
<path fill-rule="evenodd" clip-rule="evenodd" d="M2.28906 12.1994C2.5989 7.99939 3.80827 2.90769 11.5941 0C9.8717 2.65892 5.73722 8.43231 10.4947 16.5189C5.78053 12.8746 4.34463 11.7891 2.28906 12.1994Z" fill="#31437A"/>
<path fill-rule="evenodd" clip-rule="evenodd" d="M12.6533 17.162C11.2974 16.5708 9.44838 8.258 9.92812 7.25C10.6144 7.75723 12.2036 11.4694 15.3785 11.7925C14.2192 12.5905 13.1431 14.2188 12.6533 17.162Z" fill="#31437A"/>
<path fill-rule="evenodd" clip-rule="evenodd" d="M13.873 17.4524C16.1851 16.8277 17.9409 16.0481 19.1402 15.1133C18.5927 15.8793 17.8439 16.4895 16.9714 16.8805C16.0026 17.3145 14.9386 17.5109 13.873 17.4524Z" fill="#31437A"/>
</g>
<defs>
<linearGradient id="paint0_linear_6878_7638" x1="62.4714" y1="11" x2="75.5018" y2="11" gradientUnits="userSpaceOnUse">
<stop stop-color="#0085F0"/>
<stop offset="1" stop-color="#00C7E9"/>
</linearGradient>
<clipPath id="clip0_6878_7638">
<rect width="131" height="21" fill="white"/>
</clipPath>
</defs>
</svg>
